<?xml version="1.0" standalone="no"?>
<!DOCTYPE svg PUBLIC "-//W3C//DTD SVG 20010904//EN"
 "http://www.w3.org/TR/2001/REC-SVG-20010904/DTD/svg10.dtd">
<svg version="1.0" xmlns="http://www.w3.org/2000/svg"
 width="400.000000pt" height="400.000000pt" viewBox="0 0 400.000000 400.000000"
 preserveAspectRatio="xMidYMid meet">
<metadata>
Created by potrace 1.14, written by Peter Selinger 2001-2017
</metadata>
<g transform="translate(0.000000,400.000000) scale(0.100000,-0.100000)"
fill="#000000" stroke="none">
<path d="M1760 3668 c-19 -5 -59 -13 -88 -18 -61 -10 -71 -15 -54 -32 16 -16
15 -50 0 -71 -34 -44 -106 -21 -110 36 -1 15 -5 27 -9 27 -25 0 -127 -45 -140
-61 -10 -14 -29 -22 -55 -24 -64 -4 -73 -11 -67 -56 4 -24 1 -45 -7 -54 -18
-21 -66 -19 -90 5 l-20 20 -38 -25 c-22 -15 -30 -25 -20 -25 45 0 68 -88 29
-110 -45 -23 -93 -1 -93 43 0 15 -3 27 -6 27 -18 0 -189 -160 -257 -240 -63
-74 -61 -70 -23 -70 32 0 34 2 30 28 -2 18 2 35 13 45 17 17 61 22 81 9 21
-14 26 -52 10 -77 -15 -22 -14 -24 12 -34 25 -10 25 -11 2 -6 -148 32 -218 29
-315 -11 -33 -14 -96 -37 -140 -50 -99 -30 -126 -55 -133 -122 -5 -55 16 -138
48 -190 17 -28 23 -32 35 -22 9 7 15 30 15 54 0 95 53 226 91 226 48 0 140
-120 138 -180 -1 -17 -4 -12 -10 15 -9 39 -11 41 -44 37 -32 -4 -35 -8 -64
-82 -16 -43 -37 -101 -45 -129 -15 -50 -15 -51 8 -67 13 -8 26 -26 29 -40 5
-30 -26 -74 -53 -74 -25 0 -26 -4 -35 -77 l-7 -63 29 5 c19 4 35 -1 51 -15 21
-17 23 -25 16 -67 -4 -26 -9 -43 -11 -38 -2 6 -21 9 -43 7 l-40 -4 0 -53 c0
-69 7 -85 35 -85 17 0 25 7 28 23 2 12 4 -39 4 -113 0 -74 -2 -111 -4 -82 -4
45 -7 52 -25 52 -12 0 -18 -5 -15 -12 2 -7 10 -39 17 -70 13 -56 29 -77 31
-40 0 9 9 -22 19 -69 24 -115 75 -238 138 -331 28 -42 56 -79 62 -83 6 -4 8
-10 5 -15 -3 -5 0 -12 6 -16 8 -5 10 -2 4 7 -4 8 6 -1 23 -20 17 -19 29 -38
26 -42 -5 -9 26 -42 34 -34 3 3 -3 12 -14 20 -10 8 -14 15 -8 15 6 0 21 -11
33 -24 l22 -23 -43 -7 c-137 -21 -228 -56 -273 -103 -28 -30 -105 -182 -105
-207 0 -21 6 -21 100 14 45 16 87 30 95 30 8 0 0 -26 -26 -77 -38 -74 -65
-175 -53 -194 10 -17 49 -9 114 22 88 41 241 101 247 96 2 -3 -7 -22 -22 -42
-26 -39 -31 -60 -17 -69 5 -3 98 13 206 35 168 34 241 54 381 103 15 6 15 4
-3 -6 -30 -18 -19 -28 24 -21 28 5 40 1 62 -20 25 -24 86 -47 124 -47 9 0 21
13 26 30 26 72 135 37 116 -37 -5 -17 1 -21 33 -26 21 -4 57 -7 80 -7 41 0 41
0 31 28 -9 22 -8 36 3 61 12 28 18 32 43 27 16 -4 38 -14 48 -23 20 -18 24
-63 6 -81 -9 -9 6 -12 68 -12 83 0 100 5 85 24 -5 7 -4 25 3 46 10 31 16 35
48 38 28 2 40 -2 52 -20 9 -12 16 -33 16 -46 0 -20 4 -23 23 -19 12 3 39 9 59
12 28 5 42 15 57 41 16 27 27 34 50 34 16 0 33 -4 36 -10 9 -14 47 -12 86 5
32 13 33 14 8 15 -14 0 -34 10 -45 22 -19 21 -19 21 6 15 14 -4 40 -7 59 -7
29 0 32 -2 21 -15 -9 -11 -9 -15 -1 -15 6 0 14 6 17 14 4 10 25 14 71 15 37 0
76 4 87 7 35 10 66 46 66 74 0 19 7 30 26 39 23 10 26 16 22 50 -2 25 0 37 7
33 13 -7 88 -65 95 -72 23 -26 101 -80 115 -80 15 0 16 6 10 46 -6 43 -5 46
12 39 10 -5 56 -19 103 -31 68 -18 111 -23 215 -23 224 1 266 17 188 76 -68
50 -69 53 -23 53 58 0 62 22 14 72 -80 83 -183 138 -314 168 -105 24 -132 43
-168 115 -18 36 -32 69 -32 73 1 4 17 -24 36 -61 26 -52 43 -72 70 -84 41 -20
54 -10 54 43 0 31 25 64 48 64 14 0 71 86 96 145 10 22 24 55 32 73 19 43 18
52 -6 52 -24 0 -42 32 -38 68 4 33 41 54 74 42 26 -10 24 -14 49 95 23 99 30
181 16 189 -16 10 -14 69 4 92 20 27 20 142 -1 165 -17 19 -18 35 -9 95 5 29
0 67 -18 135 -37 138 -42 147 -74 151 -39 4 -55 49 -27 79 19 21 18 21 -29
112 -122 234 -333 462 -551 596 -46 28 -85 51 -87 51 -2 0 -5 -11 -5 -25 -2
-35 -22 -55 -54 -55 -30 0 -60 27 -60 54 0 27 19 56 38 56 10 1 0 10 -22 21
-27 15 -41 18 -49 10 -28 -28 -84 -5 -99 40 -3 8 -32 22 -64 31 -33 9 -68 20
-79 24 -17 7 -18 6 -7 -8 7 -9 12 -32 10 -50 -2 -25 -10 -36 -31 -46 -27 -13
-30 -12 -56 19 -31 36 -30 61 2 84 19 14 19 14 -7 21 -14 3 -41 4 -58 2 -18
-3 -47 1 -65 8 -47 20 -154 18 -192 -3 -29 -17 -32 -17 -60 0 -32 19 -98 21
-161 5z m98 -34 c25 -17 31 -75 10 -91 -28 -22 -64 -23 -86 -2 -34 31 -28 74
13 97 27 15 37 15 63 -4z m260 1 c2 -1 -13 -28 -32 -60 l-34 -57 -17 25 c-23
35 -16 79 15 94 21 10 55 9 68 -2z m-637 -136 c16 -16 20 -28 15 -52 -8 -37
-20 -47 -63 -47 -53 0 -75 74 -31 104 30 22 54 20 79 -5z m245 13 c26 -17 35
-51 22 -79 -19 -40 -64 -48 -94 -18 -27 27 -29 37 -13 68 15 27 28 37 54 37
11 0 25 -4 31 -8z m249 2 c8 -4 22 -19 30 -34 12 -23 12 -34 2 -57 -10 -22
-18 -28 -44 -28 -64 0 -96 62 -53 105 21 21 37 24 65 14z m523 -10 c26 -18 30
-65 6 -88 -23 -24 -70 -20 -88 6 -22 31 -20 54 6 78 26 24 46 25 76 4z m-80
-129 c-3 -3 -9 2 -12 12 -6 14 -5 15 5 6 7 -7 10 -15 7 -18z m-1066 -2 c22
-20 24 -66 2 -87 -33 -34 -104 -8 -104 38 0 56 62 86 102 49z m268 -15 c13
-25 13 -31 0 -55 -31 -56 -110 -36 -110 27 0 63 79 83 110 28z m240 17 c7 -8
22 -15 34 -15 11 0 -8 -11 -44 -24 -36 -12 -73 -26 -82 -30 -15 -7 -16 -4 -8
26 16 54 71 78 100 43z m772 -2 c38 -34 13 -103 -37 -103 -40 0 -54 11 -61 46
-11 61 52 99 98 57z m252 -4 c30 -23 33 -45 10 -77 -18 -26 -65 -30 -88 -6
-24 23 -20 70 6 88 29 21 40 20 72 -5z m-909 1 c-3 -5 -18 -9 -33 -9 l-27 1
30 8 c17 4 31 8 33 9 2 0 0 -3 -3 -9z m193 2 c7 -5 -16 -7 -50 -5 -91 6 -103
11 -28 12 36 0 71 -3 78 -7z m83 -63 c207 -57 358 -199 425 -399 26 -77 26
-254 0 -328 -19 -55 -106 -154 -147 -167 -11 -4 -16 -11 -13 -17 4 -6 2 -8 -4
-4 -6 3 -33 -7 -60 -23 -50 -30 -153 -59 -232 -66 -25 -3 -59 -7 -76 -10 -66
-11 -295 22 -413 60 -97 31 -122 44 -165 83 -28 26 -57 53 -66 61 -8 7 -24 32
-35 55 -19 39 -23 41 -78 50 -31 4 -96 5 -143 1 -67 -5 -89 -11 -104 -28 -17
-18 -20 -18 -26 -4 -12 33 7 66 82 147 71 75 229 210 245 210 4 0 9 -12 11
-27 3 -24 10 -14 45 60 100 208 255 333 458 367 72 13 211 3 296 -21z m208
-19 c11 -24 11 -24 -3 -6 -9 11 -16 24 -16 30 0 12 5 7 19 -24z m-1488 -51
c14 -14 18 -27 14 -42 -8 -26 -41 -57 -61 -57 -22 0 -54 38 -54 64 0 53 62 74
101 35z m251 9 c35 -27 22 -94 -19 -105 -34 -8 -77 16 -81 45 -5 35 24 72 56
72 16 0 35 -6 44 -12z m268 -20 c13 -25 13 -31 0 -55 -31 -56 -110 -36 -110
27 0 63 79 83 110 28z m159 -4 c-18 -20 -43 -40 -54 -46 -11 -6 2 11 29 36 59
55 74 61 25 10z m854 22 c28 -21 21 -40 -8 -19 -24 18 -32 33 -17 33 4 0 15
-7 25 -14z m267 -18 c13 -25 13 -31 0 -55 -29 -53 -110 -33 -110 27 0 63 79
83 110 28z m248 14 c26 -26 18 -80 -14 -94 -53 -24 -105 22 -84 76 15 39 67
49 98 18z m-467 -59 c13 -16 12 -17 -3 -4 -17 13 -22 21 -14 21 2 0 10 -8 17
-17z m-1002 -68 c-35 -49 -39 -52 -39 -31 0 12 57 76 68 76 2 0 -11 -20 -29
-45z m1093 -10 c4 -5 8 -20 8 -33 0 -41 27 -70 66 -70 43 0 52 -7 60 -49 5
-26 2 -36 -20 -57 -26 -23 -27 -27 -18 -73 5 -26 12 -57 16 -68 4 -11 0 -6 -7
10 -8 17 -22 61 -31 99 -16 67 -83 215 -112 247 -8 8 -11 19 -7 22 6 7 31 -9
45 -28z m-1546 17 c33 -21 22 -95 -16 -107 -66 -21 -110 47 -67 103 10 13 65
16 83 4z m264 -11 c36 -69 -36 -135 -90 -81 -24 24 -26 63 -4 84 22 23 81 21
94 -3z m1532 2 c24 -22 23 -58 -4 -83 -43 -39 -98 -14 -98 46 0 51 62 74 102
37z m252 1 c21 -20 20 -63 -1 -86 -38 -42 -110 -3 -99 55 4 17 12 35 19 39 20
13 65 9 81 -8z m-1656 -98 c-7 -14 -35 -39 -61 -56 l-47 -30 0 24 c0 31 23 49
62 49 22 0 33 7 41 24 5 13 12 21 14 19 3 -2 -1 -16 -9 -30z m-250 -42 c21
-37 -17 -96 -56 -89 -9 2 -20 4 -24 4 -16 2 -38 34 -38 55 0 58 90 81 118 30z
m1780 13 c17 -13 15 -72 -3 -87 -20 -17 -64 -16 -80 1 -27 29 -27 57 -2 83 25
25 55 26 85 3z m-2183 -13 c80 -22 191 -90 266 -162 l69 -67 -40 -45 c-49 -55
-65 -97 -51 -134 11 -26 112 -98 179 -127 21 -9 31 -19 28 -29 -30 -100 -67
-256 -72 -304 -3 -34 -12 -70 -19 -81 -19 -30 -70 -51 -170 -70 -250 -47 -287
-58 -271 -84 10 -16 42 -14 60 4 30 31 130 47 271 43 89 -2 138 -7 146 -15 19
-19 8 -22 -41 -11 -89 20 -134 -23 -133 -126 2 -105 61 -232 166 -359 22 -26
36 -51 32 -55 -4 -4 -57 -7 -118 -7 -107 1 -116 3 -202 39 -194 81 -262 141
-340 296 -29 58 -58 123 -65 145 -7 22 -20 46 -29 53 -13 11 -16 29 -13 100 4
129 32 268 109 526 50 169 52 212 18 278 -15 29 -36 62 -46 74 -10 11 -19 26
-19 32 0 25 51 92 73 97 70 15 131 12 212 -11z m150 -10 l27 -35 -58 32 c-33
18 -61 34 -63 36 -2 2 12 3 31 3 29 0 41 -7 63 -36z m2291 12 c13 -22 14 -29
2 -53 -24 -51 -108 -35 -108 20 0 54 76 78 106 33z m-2879 -93 c-19 -22 -45
-102 -56 -169 l-7 -49 -17 54 c-35 113 -9 178 72 180 22 1 23 0 8 -16z m772
-75 c37 -46 19 -32 -39 29 -31 32 -39 44 -20 27 20 -16 46 -41 59 -56z m135
61 c-10 -11 -27 -25 -36 -30 -29 -16 -11 14 20 34 36 22 39 21 16 -4z m1594
-16 c41 -55 -25 -117 -89 -83 -19 11 -27 63 -11 86 18 28 77 26 100 -3z m240
11 c25 -17 31 -71 10 -92 -21 -21 -75 -15 -92 10 -22 31 -20 54 6 78 26 24 46
25 76 4z m232 -21 c33 -22 39 -33 32 -52 -12 -34 -54 -41 -84 -14 -22 20 -23
46 -2 67 19 20 24 20 54 -1z m-2130 -26 c0 -2 -10 -12 -22 -23 l-23 -19 19 23
c18 21 26 27 26 19z m1774 -82 c21 -16 25 -67 6 -89 -5 -8 -7 -22 -3 -32 3
-11 -6 -4 -21 14 -20 22 -36 32 -57 32 -26 0 -29 3 -25 26 11 56 59 80 100 49z
m256 -5 c39 -39 14 -100 -41 -100 -30 0 -59 31 -59 62 0 24 35 58 60 58 11 0
29 -9 40 -20z m-476 -70 c3 -14 -3 -7 -13 15 -11 22 -20 45 -20 50 0 15 26
-37 33 -65z m-60 -17 c-3 -27 -11 -55 -16 -63 -7 -11 -8 -8 -4 10 2 14 8 42
11 63 10 54 17 46 9 -10z m-2158 -93 c-13 -47 -25 -77 -25 -67 -1 9 -8 17 -16
17 -27 0 -54 37 -49 67 6 36 29 53 71 53 29 0 33 3 34 28 1 19 3 21 6 7 2 -11
-8 -58 -21 -105z m2251 74 c-3 -3 -12 -4 -19 -1 -8 3 -5 6 6 6 11 1 17 -2 13
-5z m315 -21 c26 -31 28 -51 7 -77 -25 -31 -61 -34 -89 -6 -24 24 -25 48 -4
78 19 27 65 29 86 5z m258 -3 c11 -11 20 -29 20 -40 0 -25 -34 -60 -58 -60
-30 0 -62 29 -62 57 0 57 61 82 100 43z m-373 -42 c-3 -7 -5 -2 -5 12 0 14 2
19 5 13 2 -7 2 -19 0 -25z m3 -128 c0 -37 -26 -62 -60 -58 -15 1 -35 -4 -45
-12 -10 -8 1 14 23 49 23 35 44 72 48 83 5 18 7 18 20 -7 8 -15 14 -40 14 -55z
m244 44 c24 -23 20 -70 -6 -88 -30 -21 -50 -20 -76 4 -42 40 -19 100 38 100
16 0 36 -7 44 -16z m262 -9 c19 -29 11 -60 -21 -81 -53 -35 -115 44 -70 90 25
25 72 20 91 -9z m-874 -27 c-11 -18 -30 -43 -42 -55 -11 -13 -18 -23 -14 -23
4 0 -26 -27 -67 -60 -40 -33 -77 -60 -82 -60 -4 0 -5 -4 -2 -10 3 -5 0 -7 -9
-4 -11 4 7 23 58 64 41 33 95 88 121 125 48 67 74 84 37 23z m-2151 -119 c-28
-102 -29 -103 -27 -49 1 33 8 65 18 80 9 14 20 38 24 53 3 15 8 26 11 24 2 -2
-10 -51 -26 -108z m2637 29 c6 -6 12 -25 12 -44 0 -36 -28 -65 -58 -59 -9 2
-20 4 -24 4 -16 2 -38 34 -38 56 0 49 66 76 108 43z m237 10 c30 -14 42 -50
26 -84 -14 -33 -84 -35 -101 -4 -18 33 -8 73 20 87 30 15 24 15 55 1z m-1835
-8 c12 -8 12 -10 -5 -9 -11 0 -29 4 -40 9 -18 8 -18 9 5 9 14 0 32 -4 40 -9z
m1358 -47 c1 -34 0 -36 -9 -14 -8 21 -6 51 4 51 1 0 4 -17 5 -37z m-1191 -42
c136 -45 265 -103 341 -153 32 -22 80 -42 125 -52 68 -16 76 -16 122 -1 54 18
83 40 94 67 11 30 27 7 83 -122 145 -327 206 -516 195 -599 -2 -20 -1 -45 3
-56 6 -18 8 -17 21 9 8 16 24 35 36 43 20 13 23 12 51 -29 16 -24 27 -49 24
-57 -3 -8 0 -11 6 -7 12 7 62 -81 62 -109 0 -8 5 -15 10 -15 6 0 10 -7 10 -16
0 -8 -3 -13 -7 -11 -5 3 -9 -6 -10 -20 -1 -19 1 -22 8 -12 7 12 9 12 9 -1 -1
-24 -25 -50 -48 -50 -44 0 -52 -10 -46 -51 5 -32 4 -39 -10 -39 -9 0 -26 -9
-38 -20 -12 -11 -27 -20 -32 -19 -6 0 -5 3 3 6 9 4 10 8 2 12 -7 5 -12 47 -13
109 -1 110 -7 119 -47 77 -13 -14 -30 -25 -37 -25 -8 0 -25 -9 -37 -21 -33
-31 -144 -95 -213 -123 -48 -20 -86 -26 -185 -31 -203 -11 -378 36 -447 121
-25 29 -32 52 -42 118 -13 93 -8 112 43 174 20 23 44 60 53 82 16 36 44 55 44
30 0 -6 17 -28 38 -48 20 -21 52 -56 71 -77 21 -23 36 -34 39 -26 2 7 -3 20
-12 30 -9 10 -16 22 -16 28 0 6 -3 13 -8 15 -4 2 -21 20 -39 42 -28 34 -30 42
-21 68 6 17 7 33 2 37 -16 11 -15 105 3 163 13 46 19 55 30 46 13 -10 18 -3
13 17 -2 6 -3 30 -4 55 l-1 45 -64 23 c-35 12 -84 40 -110 61 -41 34 -189 142
-315 229 -40 28 -46 35 -35 48 10 12 9 16 -9 21 -25 6 -24 5 -16 27 4 11 13
14 32 9 20 -5 24 -3 19 10 -14 37 105 23 270 -32z m-323 -78 c15 -12 23 -23
17 -23 -5 0 -21 14 -35 31 -19 22 -26 41 -25 67 l2 37 7 -44 c4 -30 16 -52 34
-68z m1531 37 c2 0 15 5 29 11 38 18 76 -10 76 -55 0 -38 -15 -55 -54 -58 -15
-1 -26 -9 -27 -18 -1 -8 -9 19 -20 60 -10 41 -18 80 -17 85 0 6 2 2 5 -7 2
-10 6 -18 8 -18z m345 0 c39 -39 16 -100 -37 -100 -34 0 -63 26 -63 57 0 28
33 63 60 63 11 0 29 -9 40 -20z m266 -8 c41 -54 -24 -115 -87 -82 -24 14 -26
66 -2 93 21 22 68 17 89 -11z m-1069 -64 c29 -60 51 -118 40 -108 -13 13 -85
170 -78 170 4 0 21 -28 38 -62z m444 -70 c6 -23 24 -103 40 -178 16 -74 45
-193 65 -264 33 -114 36 -133 25 -160 -7 -17 -14 -38 -16 -46 -1 -8 -8 -14
-14 -12 -13 2 -15 -14 -3 -22 5 -3 16 4 25 14 8 10 13 21 9 23 -4 2 -1 2 6 1
6 -2 12 1 12 6 0 6 5 10 11 10 14 0 -40 -70 -110 -142 -37 -39 -57 -54 -63
-46 -4 7 0 21 9 30 17 19 5 26 -13 8 -7 -7 -21 5 -42 39 -18 27 -51 71 -75 97
-23 27 -47 56 -52 64 -6 9 2 2 16 -14 15 -17 28 -24 30 -18 2 7 1 63 -3 125
-6 96 -3 132 19 251 13 77 29 149 34 160 22 49 56 96 64 89 4 -5 5 0 2 10 -4
9 -2 17 3 17 5 0 14 -19 21 -42z m-131 28 c0 -2 -8 -10 -17 -17 -16 -13 -17
-12 -4 4 13 16 21 21 21 13z m362 -13 c19 -17 24 -58 10 -80 -4 -7 -22 -15
-39 -19 -59 -12 -95 54 -53 96 24 24 57 26 82 3z m260 0 c37 -34 10 -103 -42
-103 -36 0 -60 24 -60 60 0 51 64 78 102 43z m-2945 -45 c-2 -13 -4 -5 -4 17
-1 22 1 32 4 23 2 -10 2 -28 0 -40z m2511 -33 c0 -16 -2 -15 -8 5 -4 14 -8 34
-8 45 0 16 2 15 8 -5 4 -14 8 -34 8 -45z m-1381 29 c27 -21 32 -29 22 -40 -6
-8 -25 -14 -41 -14 -29 0 -30 -1 -24 -37 4 -28 3 -32 -4 -16 -9 21 -2 133 8
133 3 0 20 -12 39 -26z m141 -107 c28 -22 52 -41 52 -44 0 -2 -4 -2 -10 2 -5
3 -18 -3 -30 -15 -24 -24 -57 -26 -82 -3 -20 18 -24 68 -7 78 6 4 8 14 5 22
-7 17 1 13 72 -40z m1290 27 c10 -11 8 -15 -9 -25 -24 -12 -39 0 -39 33 0 19
24 15 48 -8z m151 12 c-2 -2 -29 -6 -59 -9 -36 -4 -46 -3 -30 3 25 8 97 13 89
6z m103 -13 c9 -10 18 -38 21 -62 l5 -44 -18 30 c-21 36 -67 73 -89 73 -14 0
-14 2 -1 10 24 15 66 12 82 -7z m268 -15 c13 -25 13 -31 0 -55 -30 -53 -110
-34 -110 25 0 63 79 84 110 30z m-970 -43 c0 -5 -5 -3 -10 5 -5 8 -10 20 -10
25 0 6 5 3 10 -5 5 -8 10 -19 10 -25z m-1002 -26 c-3 -8 -7 -3 -11 10 -4 17
-3 21 5 13 5 -5 8 -16 6 -23z m1651 6 c16 -8 31 -24 34 -37 7 -27 1 -37 -7
-11 -3 10 -27 28 -53 40 -35 17 -42 23 -25 23 13 0 36 -7 51 -15z m-1338 -85
c0 -8 2 -23 4 -33 2 -11 1 -16 -2 -13 -3 3 -15 -1 -27 -9 -30 -22 -52 -18 -75
11 -27 35 -26 49 4 80 22 22 24 28 13 42 -7 9 8 -1 35 -23 26 -22 47 -46 48
-55z m1239 80 c-34 -11 -60 -11 -35 0 11 5 29 8 40 8 16 0 15 -2 -5 -8z m-60
-14 c0 -2 -7 -7 -16 -10 -8 -3 -12 -2 -9 4 6 10 25 14 25 6z m-1440 -46 c0 -5
3 -15 6 -24 11 -29 -16 -17 -36 17 -26 43 -25 51 5 31 14 -9 25 -20 25 -24z
m1393 10 c-3 -11 -7 -20 -9 -20 -2 0 -4 9 -4 20 0 11 4 20 9 20 5 0 7 -9 4
-20z m128 10 c12 -7 19 -21 19 -42 0 -62 -59 -90 -100 -46 -51 56 12 125 81
88z m263 -12 c34 -48 9 -92 -52 -94 l-40 -1 -4 56 -3 56 42 3 c33 2 44 -2 57
-20z m-2126 -23 c-3 -3 -9 2 -12 12 -6 14 -5 15 5 6 7 -7 10 -15 7 -18z m1329
3 c-3 -8 -6 -5 -6 6 -1 11 2 17 5 13 3 -3 4 -12 1 -19z m-1340 -35 l48 -30 7
-125 c4 -69 4 -137 0 -152 -7 -26 -8 -26 -55 36 -76 99 -143 254 -129 297 7
21 74 7 129 -26z m1750 5 c-3 -8 -6 -5 -6 6 -1 11 2 17 5 13 3 -3 4 -12 1 -19z
m230 -10 c-3 -7 -5 -2 -5 12 0 14 2 19 5 13 2 -7 2 -19 0 -25z m-1582 -16 c-3
-3 -11 0 -18 7 -9 10 -8 11 6 5 10 -3 15 -9 12 -12z m1362 -14 c-3 -8 -6 -5
-6 6 -1 11 2 17 5 13 3 -3 4 -12 1 -19z m188 -63 c-20 -44 -29 -55 -36 -44
-17 26 -9 54 24 84 17 17 33 27 35 24 1 -3 -9 -32 -23 -64z m-1345 15 c-17
-52 -25 -44 -9 9 7 23 14 39 17 36 3 -3 -1 -23 -8 -45z m-145 24 c13 -8 26
-22 29 -30 3 -9 -9 -4 -29 12 -19 14 -35 28 -35 30 0 8 11 4 35 -12z m1312
-16 c-3 -8 -6 -5 -6 6 -1 11 2 17 5 13 3 -3 4 -12 1 -19z m268 -18 c-9 -41
-17 -33 -9 9 4 17 9 30 11 27 3 -2 2 -19 -2 -36z m-1834 -131 c49 -66 98 -173
99 -212 0 -25 -3 -27 -22 -21 -13 3 -27 10 -33 14 -18 13 -107 40 -116 34 -5
-3 -6 2 -3 11 4 11 2 14 -9 9 -8 -3 -18 -1 -21 4 -3 6 -7 76 -9 157 l-2 147
38 -44 c20 -23 56 -68 78 -99z m1208 72 c12 -38 21 -75 20 -83 -1 -15 -34 75
-44 120 -12 57 3 34 24 -37z m368 37 c-3 -8 -6 -5 -6 6 -1 11 2 17 5 13 3 -3
4 -12 1 -19z m-1209 -36 c12 23 12 23 6 -2 -10 -41 -18 -41 -48 -2 l-29 37 30
-28 30 -28 11 23z m-678 -2 c6 -11 7 -20 2 -20 -6 0 -12 9 -15 20 -3 11 -3 20
-1 20 2 0 8 -9 14 -20z m1945 -28 c67 -6 65 -4 50 -32 -27 -48 -53 -82 -58
-73 -4 7 -20 61 -42 140 -3 10 0 7 7 -7 9 -17 23 -26 43 -28z m176 21 c-12
-20 -14 -14 -5 12 4 9 9 14 11 11 3 -2 0 -13 -6 -23z m119 -33 c39 -39 14
-100 -41 -100 -56 0 -82 73 -37 104 30 21 54 20 78 -4z m-2224 -7 c-3 -10 -1
-25 5 -33 8 -12 9 -10 4 8 -10 35 1 27 44 -34 81 -113 198 -222 296 -274 33
-18 65 -37 70 -42 11 -10 -50 16 -102 44 -18 10 -33 13 -33 8 0 -5 -7 -7 -15
-4 -8 4 -12 11 -8 17 3 6 1 7 -5 3 -31 -19 -190 144 -272 278 -13 22 -18 36
-12 32 7 -4 12 -2 12 3 0 6 5 11 11 11 6 0 8 -8 5 -17z m2013 -44 c-11 -11
-17 -24 -14 -29 12 -20 -75 -146 -91 -132 -5 4 -6 3 -1 -2 4 -5 -5 -22 -20
-38 -20 -21 -30 -25 -40 -17 -10 9 -3 24 36 73 26 33 65 87 85 118 23 34 43
55 51 52 10 -4 9 -10 -6 -25z m-1395 -28 c-9 -23 -18 -40 -21 -38 -2 3 4 23
13 46 9 23 18 40 21 38 2 -3 -4 -23 -13 -46z m1437 0 c-20 -39 -20 -39 0 -34
26 7 59 -23 59 -55 0 -59 -74 -85 -106 -37 -9 14 -21 22 -27 18 -5 -3 3 14 20
38 17 24 38 59 47 77 9 17 19 32 21 32 3 0 -4 -18 -14 -39z m-40 6 c-10 -9
-11 -8 -5 6 3 10 9 15 12 12 3 -3 0 -11 -7 -18z m-1531 -218 c-45 -70 -59 -87
-40 -49 17 36 74 120 78 116 2 -2 -15 -32 -38 -67z m-174 16 c36 -25 71 -45
75 -45 5 0 9 -5 9 -10 0 -14 -43 9 -109 59 -72 54 -59 52 25 -4z m1713 -102
c15 -20 20 -36 15 -45 -5 -7 -7 -21 -5 -32 2 -15 -2 -17 -22 -12 -16 4 -29 1
-37 -9 -8 -9 -30 -15 -60 -15 -39 0 -56 7 -98 37 l-50 38 86 90 87 90 30 -55
c17 -30 41 -69 54 -87z m-1792 31 c43 -31 98 -66 123 -78 l45 -21 -3 -53 c-2
-39 3 -66 17 -95 19 -40 19 -41 1 -19 -11 13 -25 42 -31 65 -8 29 -13 36 -19
27 -5 -8 -6 -18 -4 -22 12 -19 22 -68 13 -63 -5 4 -9 14 -10 23 0 14 -2 13 -9
-3 -5 -11 -9 -16 -9 -11 -1 4 -17 -15 -37 -44 -28 -41 -33 -54 -23 -61 8 -5
17 -9 20 -9 16 0 16 -30 1 -42 -15 -12 -16 -11 -3 5 7 9 9 17 4 17 -15 0 -32
-22 -26 -35 2 -7 -5 -16 -16 -20 -12 -3 -27 -12 -34 -20 -37 -36 -182 -81
-407 -125 -58 -11 -113 -23 -122 -26 -33 -10 -18 17 47 84 41 41 61 70 55 76
-5 5 -19 2 -36 -9 -14 -9 -77 -35 -138 -57 -61 -22 -148 -57 -194 -78 l-82
-39 0 28 c0 40 71 178 120 233 22 26 40 51 40 57 0 17 -26 13 -62 -9 -35 -22
-188 -73 -195 -66 -9 8 56 123 87 153 53 51 146 74 515 123 135 18 259 85 280
151 4 10 8 19 10 19 2 0 39 -25 82 -56z m1490 -166 c-3 -8 -6 -5 -6 6 -1 11 2
17 5 13 3 -3 4 -12 1 -19z m73 -44 c0 -27 -12 -31 -29 -10 -8 9 -8 16 -2 20 6
4 7 14 4 24 -6 15 -5 15 10 3 9 -7 17 -24 17 -37z m-106 28 c-6 -4 -13 -15
-17 -24 -8 -22 -23 -23 -31 -2 -4 12 -2 15 9 10 8 -3 14 -2 14 2 -3 16 2 22
19 22 10 0 13 -3 6 -8z m719 -27 c33 -32 34 -36 3 -22 -13 7 -22 15 -20 19 3
5 -5 12 -18 17 -13 6 -16 10 -8 10 8 1 28 -10 43 -24z m-638 -35 c10 -11 16
-20 13 -20 -3 0 -13 9 -23 20 -10 11 -16 20 -13 20 3 0 13 -9 23 -20z m-105 0
c0 -5 -5 -10 -11 -10 -5 0 -7 5 -4 10 3 6 8 10 11 10 2 0 4 -4 4 -10z m727 4
c-3 -3 -12 -4 -19 -1 -8 3 -5 6 6 6 11 1 17 -2 13 -5z m-72 -44 c21 -7 32 -16
28 -23 -4 -7 0 -8 11 -4 11 5 33 -4 62 -24 24 -16 44 -31 44 -32 0 -2 -67 -4
-150 -6 -150 -2 -195 2 -185 20 4 5 1 9 -5 9 -6 0 -8 5 -5 10 3 6 1 10 -4 10
-6 0 -11 -4 -11 -10 0 -5 -12 -10 -27 -9 l-28 1 25 8 25 7 -25 11 c-21 10 -17
11 30 8 72 -6 112 3 117 25 6 20 36 19 98 -1z m-635 -13 c0 -2 -10 -12 -22
-23 l-23 -19 19 23 c18 21 26 27 26 19z m-1204 -53 c9 -12 10 -24 4 -34 -7
-12 -11 -8 -16 18 -5 23 -11 31 -21 28 -8 -3 -11 -1 -8 5 9 14 25 7 41 -17z
m649 -4 c-27 -12 -43 -12 -25 0 8 5 22 9 30 9 10 0 8 -3 -5 -9z m96 -10 c13
-10 19 -19 12 -20 -6 0 -13 5 -15 11 -2 6 -19 14 -38 19 -30 7 -32 8 -9 9 15
1 37 -8 50 -19z m-492 -20 c32 -22 45 -71 26 -96 -12 -17 -80 -16 -79 1 0 6
-8 18 -17 29 -21 22 -52 15 -42 -10 4 -12 3 -15 -5 -10 -7 4 -12 2 -12 -3 0
-6 -8 -11 -17 -10 -11 0 -13 3 -5 6 15 6 16 24 1 21 -6 -2 -14 3 -17 11 -2 8
0 11 5 8 5 -3 14 2 20 12 9 14 8 18 -3 18 -7 0 -11 -4 -9 -8 3 -4 -9 -9 -25
-11 -40 -6 -41 22 -2 52 23 19 35 21 90 16 40 -3 74 -13 91 -26z m341 5 c-7
-8 -21 -15 -32 -15 -10 0 -34 -7 -54 -15 -30 -12 -34 -18 -28 -40 14 -58 -46
-94 -104 -62 -22 13 -21 13 28 51 28 21 81 51 118 66 78 33 89 35 72 15z
m-623 -72 c8 -35 -21 -73 -57 -73 -34 0 -71 35 -63 58 5 12 2 14 -12 8 -23 -8
-22 -7 29 33 38 30 39 30 68 13 16 -9 31 -27 35 -39z m754 26 c15 -15 19 -28
14 -47 -13 -55 -81 -72 -111 -27 -41 62 44 127 97 74z m63 -23 l21 -18 -25 14
c-14 9 -26 24 -27 34 -2 13 -1 14 3 4 4 -8 16 -23 28 -34z m-797 -3 c-3 -10
-5 -4 -5 12 0 17 2 24 5 18 2 -7 2 -21 0 -30z m858 -23 c13 -6 15 -9 5 -9 -8
0 -22 4 -30 9 -18 12 -2 12 25 0z m-1045 -4 c0 -2 -8 -10 -17 -17 -16 -13 -17
-12 -4 4 13 16 21 21 21 13z m245 -36 c3 -6 -1 -7 -9 -4 -18 7 -21 14 -7 14 6
0 13 -4 16 -10z m42 -16 c-3 -3 -12 -4 -19 -1 -8 3 -5 6 6 6 11 1 17 -2 13 -5z
m116 -11 c-13 -2 -35 -2 -50 0 -16 2 -5 4 22 4 28 0 40 -2 28 -4z"/>
<path d="M2427 3079 c-28 -17 -47 -65 -47 -122 0 -45 6 -63 33 -103 61 -92
137 -118 196 -68 27 23 31 32 31 77 -1 135 -129 265 -213 216z m21 -145 c-5
-28 -28 -29 -28 -1 0 13 3 27 7 31 10 10 25 -10 21 -30z"/>
<path d="M1835 2838 c-37 -29 -55 -76 -55 -146 0 -110 38 -163 123 -170 45 -3
58 0 96 26 76 51 88 101 46 187 -56 116 -141 157 -210 103z m25 -107 c0 -10
-7 -24 -15 -31 -12 -10 -16 -9 -21 4 -3 9 -4 23 0 31 8 21 36 19 36 -4z"/>
<path d="M2420 2673 c0 -4 4 -15 9 -22 6 -9 6 -22 -1 -34 -8 -16 -18 -19 -54
-14 -41 4 -46 2 -60 -24 -29 -57 -104 -77 -104 -28 0 20 -15 26 -25 9 -11 -18
4 -47 31 -58 32 -15 85 5 109 41 11 18 27 26 60 30 25 2 52 10 61 17 21 18 15
84 -8 88 -10 2 -18 0 -18 -5z"/>
<path d="M1472 2268 c-16 -16 -15 -53 2 -67 8 -7 27 -11 43 -9 51 6 41 88 -11
88 -12 0 -27 -5 -34 -12z"/>
<path d="M2737 1021 c-4 -17 -3 -21 5 -13 5 5 8 16 6 23 -3 8 -7 3 -11 -10z"/>
<path d="M2985 1380 c-3 -5 -1 -10 4 -10 6 0 11 5 11 10 0 6 -2 10 -4 10 -3 0
-8 -4 -11 -10z"/>
<path d="M3040 1335 c-7 -9 -11 -17 -8 -20 2 -2 12 4 21 15 9 11 13 20 8 20
-5 0 -14 -7 -21 -15z"/>
<path d="M673 1033 c-33 -17 -59 -55 -49 -71 4 -7 32 -2 79 14 89 30 102 38
94 58 -8 21 -81 20 -124 -1z"/>
<path d="M804 891 c-60 -28 -84 -55 -65 -74 10 -10 72 7 109 31 12 8 32 28 43
43 l20 29 -23 0 c-13 0 -50 -13 -84 -29z"/>
<path d="M1430 869 c0 -5 5 -7 12 -3 7 5 9 2 5 -9 -4 -11 -2 -14 9 -10 19 7
18 19 -2 27 -21 8 -24 8 -24 -5z"/>
<path d="M1090 814 c-33 -22 -100 -86 -100 -95 0 -4 9 -11 20 -14 43 -14 151
73 136 110 -7 19 -26 19 -56 -1z"/>
<path d="M2945 1030 c-3 -5 -1 -10 4 -10 6 0 11 5 11 10 0 6 -2 10 -4 10 -3 0
-8 -4 -11 -10z"/>
<path d="M1715 830 c-3 -5 -1 -10 4 -10 6 0 11 5 11 10 0 6 -2 10 -4 10 -3 0
-8 -4 -11 -10z"/>
</g>
</svg>
